<svg width="241" height="33" viewBox="0 0 241 33" fill="none" xmlns="http://www.w3.org/2000/svg">
<path d="M32.1305 16.1636C32.1305 7.23649 24.9382 0 16.0673 0C7.19232 0.00200791 0 7.23649 0 16.1656C0 24.2314 5.87513 30.9177 13.5534 32.1305V20.836H9.47731V16.1656H13.5574V12.6016C13.5574 8.55167 15.9568 6.31486 19.6253 6.31486C21.3842 6.31486 23.2214 6.6301 23.2214 6.6301V10.6058H21.1954C19.2016 10.6058 18.5791 11.8527 18.5791 13.1317V16.1636H23.0327L22.3219 20.834H18.5771V32.1285C26.2554 30.9157 32.1305 24.2294 32.1305 16.1636Z" fill="#E6E6E6"/>
<path d="M120.13 0C111.295 0 104.13 7.16429 104.13 16C104.13 24.8357 111.295 32 120.13 32C128.966 32 136.13 24.8357 136.13 16C136.13 7.16429 128.966 0 120.13 0ZM127.82 12.0607C127.83 12.2286 127.83 12.4036 127.83 12.575C127.83 17.8179 123.838 23.8571 116.541 23.8571C114.291 23.8571 112.205 23.2036 110.448 22.0786C110.77 22.1143 111.077 22.1286 111.405 22.1286C113.263 22.1286 114.97 21.5 116.33 20.4357C114.588 20.4 113.123 19.2571 112.623 17.6857C113.234 17.775 113.784 17.775 114.413 17.6143C113.515 17.432 112.709 16.9446 112.13 16.2349C111.551 15.5253 111.236 14.6372 111.238 13.7214V13.6714C111.763 13.9679 112.38 14.15 113.027 14.175C112.484 13.8128 112.038 13.3222 111.729 12.7465C111.421 12.1709 111.26 11.528 111.259 10.875C111.259 10.1357 111.452 9.46071 111.798 8.875C112.794 10.1012 114.037 11.1041 115.446 11.8184C116.855 12.5328 118.399 12.9427 119.977 13.0214C119.416 10.325 121.43 8.14286 123.852 8.14286C124.995 8.14286 126.023 8.62143 126.748 9.39286C127.645 9.225 128.502 8.88929 129.266 8.43929C128.97 9.35714 128.348 10.1321 127.523 10.6214C128.323 10.5357 129.095 10.3143 129.809 10.0036C129.27 10.7964 128.595 11.5 127.82 12.0607Z" fill="#E6E6E6"/>
<path d="M68.1305 0C59.2938 0 52.1305 7.16333 52.1305 16C52.1305 24.8367 59.2938 32 68.1305 32C76.9672 32 84.1305 24.8367 84.1305 16C84.1305 7.16333 76.9672 0 68.1305 0ZM64.2138 22.6317H60.9738V12.205H64.2138V22.6317ZM62.5738 10.925C61.5505 10.925 60.8888 10.2 60.8888 9.30333C60.8888 8.38833 61.5705 7.685 62.6155 7.685C63.6605 7.685 64.3005 8.38833 64.3205 9.30333C64.3205 10.2 63.6605 10.925 62.5738 10.925ZM76.0472 22.6317H72.8072V16.8533C72.8072 15.5083 72.3372 14.595 71.1655 14.595C70.2705 14.595 69.7388 15.2133 69.5038 15.8083C69.4172 16.02 69.3955 16.32 69.3955 16.6183V22.63H66.1538V15.53C66.1538 14.2283 66.1122 13.14 66.0688 12.2033H68.8838L69.0322 13.6517H69.0972C69.5238 12.9717 70.5688 11.9683 72.3172 11.9683C74.4488 11.9683 76.0472 13.3967 76.0472 16.4667V22.6317Z" fill="#E6E6E6"/>
<path d="M172.13 0C163.294 0 156.13 7.16333 156.13 16C156.13 24.8367 163.294 32 172.13 32C180.967 32 188.13 24.8367 188.13 16C188.13 7.16333 180.967 0 172.13 0ZM173.225 19.7917C172.199 19.7133 171.769 19.205 170.965 18.7183C170.524 21.0367 169.984 23.26 168.384 24.4217C167.889 20.915 169.107 18.285 169.674 15.49C168.709 13.865 169.789 10.5967 171.825 11.4C174.33 12.3933 169.655 17.4417 172.794 18.0733C176.07 18.73 177.409 12.3867 175.377 10.3267C172.44 7.34833 166.832 10.2583 167.522 14.5217C167.689 15.5633 168.767 15.88 167.952 17.3183C166.074 16.9017 165.512 15.42 165.585 13.445C165.7 10.2117 168.49 7.94667 171.287 7.635C174.825 7.24167 178.145 8.93333 178.605 12.2633C179.12 16.02 177.007 20.085 173.225 19.7917Z" fill="#E6E6E6"/>
<path d="M229.13 16C229.13 17.3261 228.604 18.5979 227.666 19.5355C226.728 20.4732 225.457 21 224.13 21C222.804 21 221.533 20.4732 220.595 19.5355C219.657 18.5979 219.13 17.3261 219.13 16C219.13 15.715 219.16 15.4367 219.212 15.1667H217.464V21.8283C217.464 22.2917 217.839 22.6667 218.302 22.6667H229.96C230.183 22.6662 230.395 22.5777 230.552 22.4205C230.709 22.2634 230.797 22.0504 230.797 21.8283V15.1667H229.049C229.1 15.4367 229.13 15.715 229.13 16ZM224.13 19.3333C224.568 19.3332 225.002 19.2469 225.406 19.0792C225.811 18.9116 226.178 18.6659 226.488 18.3562C226.797 18.0465 227.043 17.6789 227.21 17.2743C227.378 16.8698 227.464 16.4362 227.464 15.9983C227.464 15.5605 227.377 15.1269 227.21 14.7225C227.042 14.318 226.796 13.9505 226.487 13.641C226.177 13.3314 225.809 13.0859 225.405 12.9185C225 12.751 224.567 12.6649 224.129 12.665C223.245 12.6652 222.397 13.0167 221.771 13.6421C221.146 14.2676 220.795 15.1157 220.795 16C220.796 16.8843 221.147 17.7322 221.773 18.3574C222.398 18.9825 223.246 19.3336 224.13 19.3333ZM228.13 12.5H230.129C230.262 12.5 230.389 12.4474 230.483 12.3537C230.577 12.2599 230.63 12.1328 230.63 12V10.0017C230.63 9.86862 230.578 9.74102 230.484 9.64693C230.389 9.55285 230.262 9.5 230.129 9.5H228.13C227.997 9.5 227.87 9.55285 227.776 9.64693C227.682 9.74102 227.629 9.86862 227.629 10.0017V12C227.63 12.275 227.855 12.5 228.13 12.5ZM224.13 0C219.887 0 215.817 1.68571 212.817 4.68629C209.816 7.68687 208.13 11.7565 208.13 16C208.13 20.2435 209.816 24.3131 212.817 27.3137C215.817 30.3143 219.887 32 224.13 32C226.232 32 228.312 31.5861 230.253 30.7821C232.195 29.978 233.958 28.7994 235.444 27.3137C236.93 25.828 238.108 24.0641 238.913 22.1229C239.717 20.1817 240.13 18.1012 240.13 16C240.13 13.8989 239.717 11.8183 238.913 9.87706C238.108 7.93586 236.93 6.17203 235.444 4.68629C233.958 3.20055 232.195 2.022 230.253 1.21793C228.312 0.413852 226.232 0 224.13 0ZM232.464 22.4817C232.464 23.5 231.63 24.3333 230.612 24.3333H217.649C216.63 24.3333 215.797 23.5 215.797 22.4817V9.51833C215.797 8.5 216.63 7.66667 217.649 7.66667H230.612C231.63 7.66667 232.464 8.5 232.464 9.51833V22.4817Z" fill="#E6E6E6"/>
</svg>
