<svg width="34" height="36" viewBox="0 0 34 36" fill="none" xmlns="http://www.w3.org/2000/svg">
<rect y="6" width="30" height="30" rx="6" fill="#FF730D"/>
<path d="M12.6853 26.8041C12.317 26.8041 11.9637 26.9519 11.7033 27.2153C11.4427 27.4784 11.2964 27.8354 11.2964 28.2076C11.2964 28.5799 11.4427 28.9369 11.7033 29.2001C11.9637 29.4632 12.317 29.6111 12.6853 29.6111C13.0537 29.6111 13.407 29.4632 13.6674 29.2001C13.9278 28.9369 14.0741 28.5799 14.0741 28.2076C14.0741 27.8354 13.9278 27.4784 13.6674 27.2153C13.407 26.9519 13.0537 26.8041 12.6853 26.8041ZM22.4075 23.997H11.2964C10.9656 23.997 10.6599 23.8188 10.4945 23.5293C10.3291 23.2398 10.3291 22.883 10.4945 22.5935C10.6599 22.304 10.9656 22.1258 11.2964 22.1258H19.1587C19.7618 22.1237 20.3482 21.9243 20.8296 21.5573C21.3113 21.1903 21.6622 20.6754 21.8298 20.0898L23.2977 14.8976C23.3775 14.6153 23.3217 14.3115 23.1467 14.0771C22.9717 13.8426 22.6981 13.7048 22.4075 13.7048H11.0547C10.863 13.1595 10.5097 12.6874 10.0428 12.3524C9.57592 12.0175 9.01823 11.8363 8.44577 11.8333H7.5926C7.26181 11.8333 6.95613 12.0118 6.79073 12.3012C6.62534 12.5907 6.62534 12.9474 6.79073 13.2369C6.95613 13.5264 7.2618 13.7048 7.5926 13.7048H8.44577C8.64666 13.7054 8.84213 13.772 9.00255 13.8941C9.16299 14.0165 9.28002 14.188 9.33597 14.3832L9.47998 14.8929L9.48013 14.8976L10.9992 20.2703C10.0476 20.3737 9.21585 20.9648 8.79764 21.8349C8.37958 22.7048 8.43398 23.731 8.94179 24.5508C9.44961 25.3705 10.3392 25.8684 11.2962 25.8684H22.4073C22.7381 25.8684 23.0438 25.69 23.2092 25.4005C23.3746 25.1111 23.3746 24.7544 23.2092 24.4649C23.0438 24.1754 22.7381 23.997 22.4073 23.997L22.4075 23.997ZM21.1801 15.5759L20.0493 19.5753V19.5754C19.9935 19.7706 19.8764 19.9424 19.7159 20.0648C19.5553 20.1871 19.3598 20.2537 19.1586 20.2543H12.9209L12.6848 19.4196L11.5987 15.5759L21.1801 15.5759ZM20.0927 26.8041C19.7244 26.8041 19.3711 26.9519 19.1106 27.2153C18.8501 27.4784 18.7038 27.8354 18.7038 28.2076C18.7038 28.5799 18.8501 28.9369 19.1106 29.2001C19.3711 29.4632 19.7244 29.6111 20.0927 29.6111C20.461 29.6111 20.8143 29.4632 21.0748 29.2001C21.3353 28.9369 21.4816 28.5799 21.4816 28.2076C21.4816 27.8354 21.3353 27.4784 21.0748 27.2153C20.8143 26.9519 20.461 26.8041 20.0927 26.8041Z" fill="white"/>
<circle cx="28" cy="7" r="5.8" fill="white" stroke="#F1F1F1" stroke-width="0.4"/>
<path d="M26.098 5.41H27.556V10H28.708V3.7H27.862C27.763 4.348 27.115 4.825 26.224 4.825H26.098V5.41Z" fill="#331C18"/>
</svg>
