<svg width="92" height="12" viewBox="0 0 92 12" fill="none" xmlns="http://www.w3.org/2000/svg">
<path d="M11.612 4.22563L8.01471 3.67815L6.40661 0.264221C6.36269 0.17075 6.29043 0.0950826 6.20117 0.0490888C5.97731 -0.0666377 5.70528 0.029801 5.59335 0.264221L3.98524 3.67815L0.387906 4.22563C0.288728 4.24046 0.198051 4.28943 0.128626 4.36361C0.0446955 4.45394 -0.00155413 4.57548 3.9878e-05 4.7015C0.00163389 4.82753 0.0509411 4.94774 0.137127 5.03571L2.73985 7.69297L2.12494 11.4452C2.11052 11.5325 2.11975 11.6222 2.15157 11.7043C2.18339 11.7864 2.23653 11.8575 2.30498 11.9095C2.37342 11.9616 2.45442 11.9925 2.5388 11.9988C2.62317 12.0051 2.70755 11.9865 2.78235 11.9452L5.99998 10.1737L9.2176 11.9452C9.30545 11.9941 9.40746 12.0105 9.50522 11.9927C9.75175 11.9481 9.91752 11.7033 9.87501 11.4452L9.26011 7.69297L11.8628 5.03571C11.9337 4.96301 11.9804 4.86806 11.9946 4.7642C12.0328 4.50456 11.86 4.2642 11.612 4.22563Z" fill="#FF730D"/>
<path d="M31.6119 4.22551L28.0146 3.67803L26.4065 0.264099C26.3626 0.170628 26.2903 0.0949605 26.201 0.0489667C25.9772 -0.0667598 25.7052 0.029679 25.5932 0.264099L23.9851 3.67803L20.3878 4.22551C20.2886 4.24034 20.1979 4.2893 20.1285 4.36349C20.0446 4.45382 19.9983 4.57536 19.9999 4.70138C20.0015 4.82741 20.0508 4.94761 20.137 5.03559L22.7397 7.69285L22.1248 11.4451C22.1104 11.5323 22.1196 11.6221 22.1514 11.7042C22.1833 11.7863 22.2364 11.8574 22.3049 11.9094C22.3733 11.9615 22.4543 11.9924 22.5387 11.9987C22.6231 12.005 22.7074 11.9864 22.7822 11.9451L25.9999 10.1735L29.2175 11.9451C29.3053 11.994 29.4073 12.0103 29.5051 11.9925C29.7516 11.948 29.9174 11.7032 29.8749 11.4451L29.26 7.69285L31.8627 5.03559C31.9335 4.96289 31.9803 4.86794 31.9945 4.76408C32.0327 4.50444 31.8599 4.26408 31.6119 4.22551Z" fill="#FF730D"/>
<path d="M51.6118 4.22551L48.0145 3.67803L46.4064 0.264099C46.3624 0.170628 46.2902 0.0949605 46.2009 0.0489667C45.9771 -0.0667598 45.705 0.029679 45.5931 0.264099L43.985 3.67803L40.3877 4.22551C40.2885 4.24034 40.1978 4.2893 40.1284 4.36349C40.0445 4.45382 39.9982 4.57536 39.9998 4.70138C40.0014 4.82741 40.0507 4.94761 40.1369 5.03559L42.7396 7.69285L42.1247 11.4451C42.1103 11.5323 42.1195 11.6221 42.1513 11.7042C42.1831 11.7863 42.2363 11.8574 42.3047 11.9094C42.3732 11.9615 42.4542 11.9924 42.5386 11.9987C42.6229 12.005 42.7073 11.9864 42.7821 11.9451L45.9997 10.1735L49.2174 11.9451C49.3052 11.994 49.4072 12.0103 49.505 11.9925C49.7515 11.948 49.9173 11.7032 49.8748 11.4451L49.2599 7.69285L51.8626 5.03559C51.9334 4.96289 51.9802 4.86794 51.9943 4.76408C52.0326 4.50444 51.8597 4.26408 51.6118 4.22551Z" fill="#FF730D"/>
<path d="M71.6118 4.22551L68.0145 3.67803L66.4064 0.264099C66.3624 0.170628 66.2902 0.0949605 66.2009 0.0489667C65.9771 -0.0667598 65.705 0.029679 65.5931 0.264099L63.985 3.67803L60.3877 4.22551C60.2885 4.24034 60.1978 4.2893 60.1284 4.36349C60.0445 4.45382 59.9982 4.57536 59.9998 4.70138C60.0014 4.82741 60.0507 4.94761 60.1369 5.03559L62.7396 7.69285L62.1247 11.4451C62.1103 11.5323 62.1195 11.6221 62.1513 11.7042C62.1831 11.7863 62.2363 11.8574 62.3047 11.9094C62.3732 11.9615 62.4542 11.9924 62.5386 11.9987C62.6229 12.005 62.7073 11.9864 62.7821 11.9451L65.9997 10.1735L69.2174 11.9451C69.3052 11.994 69.4072 12.0103 69.505 11.9925C69.7515 11.948 69.9173 11.7032 69.8748 11.4451L69.2599 7.69285L71.8626 5.03559C71.9334 4.96289 71.9802 4.86794 71.9943 4.76408C72.0326 4.50444 71.8597 4.26408 71.6118 4.22551Z" fill="#FF730D"/>
<path d="M91.6117 4.22551L88.0143 3.67803L86.4062 0.264099C86.3623 0.170628 86.2901 0.0949605 86.2008 0.0489667C85.9769 -0.0667598 85.7049 0.029679 85.593 0.264099L83.9849 3.67803L80.3875 4.22551C80.2884 4.24034 80.1977 4.2893 80.1283 4.36349C80.0443 4.45382 79.9981 4.57536 79.9997 4.70138C80.0013 4.82741 80.0506 4.94761 80.1368 5.03559L82.7395 7.69285L82.1246 11.4451C82.1102 11.5323 82.1194 11.6221 82.1512 11.7042C82.183 11.7863 82.2362 11.8574 82.3046 11.9094C82.3731 11.9615 82.4541 11.9924 82.5384 11.9987C82.6228 12.005 82.7072 11.9864 82.782 11.9451L85.9996 10.1735L89.2172 11.9451C89.3051 11.994 89.4071 12.0103 89.5049 11.9925C89.7514 11.948 89.9172 11.7032 89.8746 11.4451L89.2597 7.69285L91.8625 5.03559C91.9333 4.96289 91.9801 4.86794 91.9942 4.76408C92.0325 4.50444 91.8596 4.26408 91.6117 4.22551Z" fill="#FF730D"/>
</svg>
