<svg width="40" height="56" viewBox="0 0 40 56" fill="none" xmlns="http://www.w3.org/2000/svg">
<path d="M20.0048 40.0183C19.7517 40.0196 19.5079 39.9205 19.3284 39.7418L14.0297 34.4431H6.52893C6.00264 34.4431 5.5759 34.0164 5.5759 33.4901V25.9804L0.27729 20.6818V20.6813C-0.09243 20.3099 -0.09243 19.7096 0.27729 19.3377L5.5759 14.0391V6.52893C5.5759 6.00264 6.00264 5.5759 6.52893 5.5759H14.0293L19.3279 0.27729H19.3284C19.6998 -0.09243 20.3001 -0.09243 20.672 0.27729L25.9706 5.5759H33.471C33.7237 5.5759 33.9662 5.67631 34.1449 5.855C34.3236 6.03412 34.424 6.27621 34.424 6.52893V14.0387L39.723 19.3377C40.0923 19.7096 40.0923 20.3099 39.723 20.6813L34.4244 25.9799V33.4897L34.424 33.4901C34.424 33.7428 34.3236 33.9854 34.1449 34.164C33.9662 34.3427 33.7237 34.4431 33.471 34.4431H25.9804L20.6818 39.7418H20.6813C20.5018 39.9205 20.258 40.0196 20.0049 40.0183H20.0048ZM7.48151 32.5277H14.4292C14.6824 32.526 14.9262 32.6256 15.1057 32.8039L20.0045 37.7217L24.9125 32.8137C25.0925 32.635 25.3359 32.5358 25.589 32.5371H32.5367V25.5894C32.5355 25.3362 32.6346 25.0929 32.8133 24.9129L37.7213 20.0049L32.8133 15.0968C32.6346 14.9169 32.5355 14.6735 32.5367 14.4204V7.48199H25.589C25.3359 7.48369 25.0925 7.38414 24.9125 7.20586L20.0045 2.28803L15.0965 7.19606C14.9165 7.37475 14.6731 7.47389 14.42 7.47261H7.48162V14.4203C7.48332 14.6735 7.38376 14.9169 7.20549 15.0968L2.28766 20.0049L7.19569 24.9129C7.37438 25.0929 7.47352 25.3362 7.47224 25.5894L7.48151 32.5277Z" fill="#FF730D"/>
<path d="M27.3524 37.4641L26.504 36.6157L25.1511 37.9598L25.3323 38.141L11.4279 52.0171V47.5758C11.4279 47.323 11.3275 47.0805 11.1488 46.9018C10.9701 46.7232 10.7276 46.6227 10.4749 46.6227H6.06243L14.7919 37.8932L13.4483 36.5496L3.08888 46.8993C2.80509 47.1643 2.71106 47.5753 2.85062 47.9378C2.99698 48.2939 3.34287 48.5271 3.72749 48.5288H9.52179V54.3137C9.52392 54.6983 9.75664 55.0442 10.1128 55.1906C10.2259 55.2438 10.3497 55.2702 10.4748 55.2668C10.728 55.268 10.9718 55.1689 11.1513 54.9902L27.3528 38.7887C27.5331 38.61 27.6348 38.3663 27.6348 38.1123C27.6348 37.8583 27.5331 37.6145 27.3528 37.4358L27.3524 37.4641Z" fill="#FF730D"/>
<path d="M36.8827 46.8996L29.2584 39.2754C29.1189 39.5966 28.9181 39.8881 28.6679 40.1331L28.0484 40.762L33.8811 46.5946H29.4682C28.9419 46.5946 28.5151 47.0213 28.5151 47.5476V51.9885L22.6825 46.1559L21.3291 47.4995L28.7917 54.9621C28.9717 55.1403 29.215 55.2399 29.4682 55.2386C29.5932 55.2416 29.7175 55.2157 29.8302 55.1625C30.1863 55.0161 30.4195 54.6702 30.4212 54.2856V48.5291H36.2061C36.5907 48.5274 36.9366 48.2943 37.083 47.9381C37.2323 47.5833 37.1532 47.1736 36.8826 46.8996L36.8827 46.8996Z" fill="#FF730D"/>
<path d="M20.0048 26.676C19.7214 26.6764 19.4525 26.5509 19.2709 26.3331L14.5057 20.6149C14.3441 20.42 14.2662 20.169 14.2896 19.9171C14.3126 19.6653 14.4351 19.4325 14.6295 19.2709C15.035 18.9339 15.6366 18.9896 15.9736 19.3947L19.9002 24.1121L25.8659 14.7341V14.7345C26.1476 14.2895 26.7364 14.1576 27.181 14.4388C27.626 14.7205 27.7579 15.3093 27.4767 15.7543L20.8055 26.2376C20.6417 26.4938 20.3655 26.6567 20.0618 26.6759L20.0048 26.676Z" fill="#FF730D"/>
</svg>
