<svg width="30" height="30" viewBox="0 0 30 30" fill="none" xmlns="http://www.w3.org/2000/svg">
<rect width="30" height="30" rx="2" fill="#7D6D6B"/>
<path d="M9.83461 23.8545C9.9415 23.9469 10.0869 23.9993 10.2389 24C10.3912 24.0012 10.5376 23.9486 10.6432 23.8545L20.1777 15.6818C20.2859 15.5903 20.3468 15.4655 20.3468 15.3352C20.3468 15.2049 20.2859 15.0801 20.1777 14.9886L10.6432 6.81439C10.5373 6.71733 10.39 6.66124 10.235 6.65906C10.0798 6.65689 9.93048 6.70862 9.82074 6.80267C9.71116 6.89659 9.65067 7.02473 9.65334 7.15758C9.65588 7.29043 9.72132 7.41675 9.83456 7.50754L18.9647 15.3352L9.83456 23.161C9.72682 23.2528 9.66632 23.3775 9.66632 23.5077C9.66632 23.6378 9.72682 23.7625 9.83456 23.8542L9.83461 23.8545Z" fill="white"/>
</svg>
